<?xml version="1.0" encoding="UTF-8" standalone="no"?>
<!-- Created with Inkscape (http://www.inkscape.org/) -->

<svg
   version="1.1"
   id="svg1"
   width="264.65866"
   height="141.85468"
   viewBox="0 0 264.65866 141.85467"
   xmlns="http://www.w3.org/2000/svg"
   xmlns:svg="http://www.w3.org/2000/svg">
  <defs
     id="defs1" />
  <g
     id="layer-MC1"
     transform="translate(-225.28156,-85.403637)">
    <path
       id="path64"
       d="m 417.46287,130.4543 h 69.26267 c 1.776,0 3.21467,-1.44 3.21467,-3.216 V 88.618302 c 0,-1.776 -1.43867,-3.21467 -3.21467,-3.21467 h -90.59867 c -1.40666,0 -2.752,0.576 -3.72133,1.59467 L 367.11488,113.56897 341.82421,86.998302 c -0.96933,-1.01867 -2.31467,-1.59467 -3.72133,-1.59467 h -83.82667 c -1.40933,0 -2.756,0.57867 -3.72666,1.6 l -23.85734,25.147998 c -0.90533,0.95334 -1.41066,2.21867 -1.41066,3.53467 v 108.356 c 0,1.776 1.44,3.216 3.216,3.216 h 38.61999 c 1.776,0 3.216,-1.44 3.216,-3.216 v -87.66533 c 0,-2.92934 2.37467,-5.30267 5.304,-5.30267 h 41.144 c 2.92934,0 5.304,2.37333 5.304,5.30267 v 87.66533 c 0,1.776 1.44,3.216 3.216,3.216 h 38.62 c 1.776,0 3.21467,-1.44 3.21467,-3.216 v -24.89067 l 25.27066,26.51333 c 0.96934,1.01734 2.31334,1.59334 3.71867,1.59334 h 90.6 c 1.776,0 3.21467,-1.44 3.21467,-3.216 v -38.62 c 0,-1.776 -1.43867,-3.216 -3.21467,-3.216 h -69.26267 c -2.92933,0 -5.304,-2.37467 -5.304,-5.304 v -41.144 c 0,-2.92933 2.37467,-5.304 5.304,-5.304"
       style="fill:#003569;fill-opacity:1;fill-rule:nonzero;stroke:none;stroke-width:1.33333" />
  </g>
</svg>
